# xmcd
#
# Track frame offsets: 
#        150
#        17018
#        27543
#        43844
#        49298
#        68654
#
# Disc length: 1117 seconds
#
# Revision: 1
# Processed by: cddbd v1.5.2PL0 Copyright (c) Steve Scherf et al.
# Submitted via: ExactAudioCopy v0.99pb5
#
DISCID=4e045b06
DTITLE=Hem - Home Again, Home Again
DYEAR=2007
DGENRE=Folk
TTITLE0=The Part Where You Let Go
TTITLE1=Half Asleep
TTITLE2=While My Hand Was Letting Go
TTITLE3=The Meeting Place
TTITLE4=Home Again
TTITLE5=Half Acre
EXTD=
EXTT0=
EXTT1=
EXTT2=
EXTT3=
EXTT4=
EXTT5=
PLAYORDER=
